<mxfile host="app.diagrams.net" modified="2023-10-19T04:50:34.716Z" agent="Mozilla/5.0 (Windows NT 10.0; Win64; x64) AppleWebKit/537.36 (KHTML, like Gecko) Chrome/118.0.0.0 Safari/537.36" version="21.8.2" etag="kmOPVttcRy4rBYSMLwR1" type="github">
  <diagram name="Page-1" id="Cmelji1_LSUBfPCGev1W">
    <mxGraphModel>
      <root>
        <mxCell id="0" />
        <mxCell id="1" parent="0" />
      </root>
    </mxGraphModel>
  </diagram>
</mxfile>
